<?xml version="1.0" encoding="UTF-8" standalone="no"?>
<!DOCTYPE svg PUBLIC "-//W3C//DTD SVG 1.1//EN"
 "http://www.w3.org/Graphics/SVG/1.1/DTD/svg11.dtd">
<!-- Generated by graphviz version 2.38.0 (20140413.2041)
 -->
<!-- Title: G Pages: 1 -->
<svg width="522pt" height="150pt"
 viewBox="0.00 0.00 521.98 150.00" xmlns="http://www.w3.org/2000/svg" xmlns:xlink="http://www.w3.org/1999/xlink">
<g id="graph0" class="graph" transform="scale(1 1) rotate(0) translate(4 146)">
<title>G</title>
<polygon fill="white" stroke="none" points="-4,4 -4,-146 517.978,-146 517.978,4 -4,4"/>
<g id="clust1" class="cluster"><title>cluster_Global</title>
<path fill="none" stroke="gray" d="M322.978,-8C322.978,-8 493.978,-8 493.978,-8 499.978,-8 505.978,-14 505.978,-20 505.978,-20 505.978,-122 505.978,-122 505.978,-128 499.978,-134 493.978,-134 493.978,-134 322.978,-134 322.978,-134 316.978,-134 310.978,-128 310.978,-122 310.978,-122 310.978,-20 310.978,-20 310.978,-14 316.978,-8 322.978,-8"/>
<text text-anchor="middle" x="408.478" y="-121.2" font-family="Times,serif" font-size="11.00" fill="gray">Global</text>
</g>
<!-- \\ImageDisplayPlugin -->
<g id="node1" class="node"><title>\\ImageDisplayPlugin</title>
<polygon fill="none" stroke="black" points="477.478,-106 339.478,-106 339.478,-70 477.478,-70 477.478,-106"/>
<text text-anchor="middle" x="408.478" y="-85.2" font-family="Courier,monospace" font-size="11.00">ImageDisplayPlugin</text>
</g>
<!-- \\Omeka_Plugin_AbstractPlugin -->
<g id="node3" class="node"><title>\\Omeka_Plugin_AbstractPlugin</title>
<ellipse fill="none" stroke="black" cx="123.489" cy="-88" rx="123.478" ry="18"/>
<text text-anchor="middle" x="123.489" y="-84.3" font-family="Times,serif" font-size="14.00" fill="gray">\Omeka_Plugin_AbstractPlugin</text>
</g>
<!-- \\ImageDisplayPlugin&#45;&gt;\\Omeka_Plugin_AbstractPlugin -->
<g id="edge1" class="edge"><title>\\ImageDisplayPlugin&#45;&gt;\\Omeka_Plugin_AbstractPlugin</title>
<path fill="none" stroke="black" d="M339.335,-88C314.538,-88 285.585,-88 257.114,-88"/>
<polygon fill="none" stroke="black" points="257.071,-84.5001 247.071,-88 257.071,-91.5001 257.071,-84.5001"/>
</g>
<!-- \\ImageDisplayLayoutHelper -->
<g id="node2" class="node"><title>\\ImageDisplayLayoutHelper</title>
<polygon fill="none" stroke="black" points="497.978,-52 318.978,-52 318.978,-16 497.978,-16 497.978,-52"/>
<text text-anchor="middle" x="408.478" y="-31.2" font-family="Courier,monospace" font-size="11.00">ImageDisplayLayoutHelper</text>
</g>
</g>
</svg>
